<svg xmlns="http://www.w3.org/2000/svg" width="1587.928" height="669.621" viewBox="0 0 1587.928 669.621">
  <g id="Alternative" transform="translate(-206.035 -206.03)">
    <g id="グループ_3" data-name="グループ 3" transform="translate(923.459 729.597)">
      <path id="パス_1" data-name="パス 1" d="M0,124.078H-3.206c-16.482,0-18.77-4.12-18.77-25.183V-.456H0c47.612,0,56.313,34.792,56.313,61.808,0,27.929-8.7,62.726-56.313,62.726M-193.206,60.433V-.456h18.77c20.6,0,29.762,14.19,29.762,30.672,0,16.027-9.16,30.217-29.762,30.217ZM-1.373-14.19H-83.328v8.695c25.637,0,29.757,5.494,29.757,38V91.114c0,32.505-4.12,38.458-29.757,38.458-19.682-2.747-32.963-13.28-51.278-33.424l-21.056-22.889c28.383-5.04,43.491-22.9,43.491-43.043,0-25.177-21.515-44.406-61.806-44.406h-80.581V-5.5C-228.921-5.5-224.8,0-224.8,32.5V91.114c0,32.505-4.12,38.458-29.757,38.458v8.7h91.109v-8.7c-25.637,0-29.757-5.953-29.757-38.458V74.632h7.782l50.818,63.636H-1.373c65.472,0,93.856-34.792,93.856-76.462s-28.384-76-93.856-76" fill="#32373c"/>
    </g>
    <g id="グループ_4" data-name="グループ 4" transform="translate(413.894 738.291)">
      <path id="パス_2" data-name="パス 2" d="M0,68.685,31.59-24.723c9.16-27.01,5.04-34.792-24.263-34.792v-9.16H93.4v9.16c-28.843,0-35.71,6.868-47.158,40.291L-5.954,137.36H-11.9L-58.6-5.949-106.217,137.36h-5.954L-162.989-19.224c-10.988-33.423-18.315-40.291-44.87-40.291v-9.16h101.642v9.16c-27.016,0-34.342,6.408-24.723,34.792l30.671,93.408,46.244-137.36h8.7Z" fill="#32373c"/>
    </g>
    <g id="グループ_5" data-name="グループ 5" transform="translate(569.551 859.619)">
      <path id="パス_3" data-name="パス 3" d="M0-135.971c-42.118,0-56.772,38-56.772,67.755C-56.772-37.993-42.118-.45,0-.45c42.583,0,57.232-37.543,57.232-67.766,0-29.757-14.649-67.755-57.232-67.755M0,14.2c-50.359,0-91.568-37.085-91.568-82.416,0-44.865,41.209-81.955,91.568-81.955s91.569,37.09,91.569,81.955C91.569-22.885,50.365,14.2,0,14.2" fill="#32373c"/>
    </g>
    <g id="グループ_6" data-name="グループ 6" transform="translate(1118.95 851.382)">
      <path id="パス_4" data-name="パス 4" d="M0-165.284H-26.1v79.668H0c25.642,0,37.543-17.855,37.543-39.372,0-21.976-11.9-40.3-37.543-40.3M10.074,7.327v9.155H-94.77V7.327c30.676,0,36.17-7.781,36.17-53.571v-73.25c0-45.79-5.494-53.112-36.17-53.112v-9.16H0c47.158,0,73.259,24.269,73.259,56.778C73.259-93.4,47.158-68.675,0-68.675H-26.1v22.431c0,45.79,5.494,53.571,36.17,53.571" fill="#32373c"/>
    </g>
    <g id="グループ_7" data-name="グループ 7" transform="translate(1264.09 793.242)">
      <path id="パス_5" data-name="パス 5" d="M0-3.212V-64.1H18.769c20.6,0,29.762,14.189,29.762,30.671,0,16.027-9.16,30.217-29.762,30.217Zm242.645,34.8-2.287,8.241c-4.121,15.109-9.16,20.6-41.664,20.6h-6.413c-23.8,0-27.924-5.493-27.924-38V1.373c35.711,0,38.457,3.2,38.457,27.011h8.7V-39.837h-8.7c0,23.809-2.746,27.01-38.457,27.01V-64.1h25.177c32.509,0,37.544,5.494,41.664,20.6l2.292,8.7h7.322l-3.2-43.032H103v8.695c25.637,0,29.757,5.494,29.757,38V27.47c0,29.736-3.5,37.227-23.714,38.294C89.836,62.832,76.645,52.351,58.6,32.5L37.538,9.614c28.389-5.04,43.5-22.9,43.5-43.043,0-25.177-21.516-44.406-61.807-44.406h-80.58v8.695c25.636,0,29.756,5.494,29.756,38V27.47c0,32.5-4.12,38.457-29.756,38.457v8.7H29.756v-8.7C4.12,65.927,0,59.974,0,27.47V10.988H7.781L58.6,74.623H246.766l2.747-43.033Z" fill="#32373c"/>
    </g>
    <g id="グループ_8" data-name="グループ 8" transform="translate(1599.67 709.448)">
      <path id="パス_6" data-name="パス 6" d="M0,164.37c-18.314,0-34.342-9.615-41.209-15.568-2.288,2.292-6.408,9.16-7.322,15.568h-8.7V101.189h9.154c3.667,30.217,24.723,48.072,51.738,48.072,14.649,0,26.556-8.241,26.556-21.975,0-11.9-10.534-21.063-29.3-29.758l-26.1-12.362C-43.5,76.461-57.231,61.352-57.231,41.21c0-21.976,20.6-40.746,48.99-40.746,15.109,0,27.924,5.5,35.711,11.9C29.757,10.533,32.045,5.493,33.424,0h8.695V54.031H32.5C29.3,32.509,17.4,14.654-6.867,14.654c-12.821,0-24.728,7.327-24.728,18.774,0,11.9,9.615,18.31,31.595,28.384L25.177,74.173C47.158,84.7,55.853,101.649,55.853,115.384c0,28.843-25.182,48.986-55.853,48.986" fill="#32373c"/>
    </g>
    <g id="グループ_9" data-name="グループ 9" transform="translate(1738.11 709.448)">
      <path id="パス_7" data-name="パス 7" d="M0,164.37c-18.315,0-34.342-9.615-41.209-15.568-2.288,2.292-6.408,9.16-7.322,15.568h-8.7V101.189h9.155c3.667,30.217,24.723,48.072,51.738,48.072,14.649,0,26.556-8.241,26.556-21.975,0-11.9-10.534-21.063-29.3-29.758l-26.1-12.362C-43.5,76.461-57.232,61.352-57.232,41.21-57.232,19.234-36.63.464-8.241.464c15.109,0,27.924,5.5,35.71,11.9C29.757,10.533,32.045,5.493,33.418,0h8.7V54.031H32.5C29.3,32.509,17.4,14.654-6.867,14.654c-12.821,0-24.728,7.327-24.728,18.774,0,11.9,9.614,18.31,31.595,28.384L25.177,74.173C47.158,84.7,55.853,101.649,55.853,115.384c0,28.843-25.182,48.986-55.853,48.986" fill="#32373c"/>
    </g>
    <g id="グループ_10" data-name="グループ 10" transform="translate(1000 618.099)">
      <path id="パス_8" data-name="パス 8" d="M0-412.069c-113.788,0-206.032,92.245-206.032,206.035S-113.788,0,0,0,206.032-92.245,206.032-206.034,113.788-412.069,0-412.069m0,12.362a192.434,192.434,0,0,1,75.381,15.215,193.67,193.67,0,0,1,32.893,17.854,195.055,195.055,0,0,1,28.672,23.657A195.111,195.111,0,0,1,160.6-314.31a193.709,193.709,0,0,1,17.854,32.893,192.464,192.464,0,0,1,15.214,75.383,192.46,192.46,0,0,1-15.214,75.382A193.709,193.709,0,0,1,160.6-97.759a195.114,195.114,0,0,1-23.656,28.672,195.115,195.115,0,0,1-28.672,23.656A193.6,193.6,0,0,1,75.381-27.577,192.434,192.434,0,0,1,0-12.362,192.435,192.435,0,0,1-75.381-27.577a193.641,193.641,0,0,1-32.893-17.854,195.107,195.107,0,0,1-28.671-23.656A195.121,195.121,0,0,1-160.6-97.759a193.711,193.711,0,0,1-17.854-32.893,192.46,192.46,0,0,1-15.214-75.382,192.464,192.464,0,0,1,15.214-75.383A193.712,193.712,0,0,1-160.6-314.31a195.114,195.114,0,0,1,23.657-28.671,195.054,195.054,0,0,1,28.671-23.657,193.71,193.71,0,0,1,32.893-17.854A192.434,192.434,0,0,1,0-399.707" fill="#32373c"/>
    </g>
    <g id="グループ_11" data-name="グループ 11" transform="translate(1150.67 494.439)">
      <path id="パス_9" data-name="パス 9" d="M0-164.747a131.9,131.9,0,0,1,1.154,17.654c0,17.416-3.263,37-13.06,61.5L-64.345,66.021A171.593,171.593,0,0,0,21.027-82.38,170.877,170.877,0,0,0,0-164.747M-147.65-67.362-199.172,82.326a171.56,171.56,0,0,0,48.506,7,171.311,171.311,0,0,0,57.018-9.735,15.671,15.671,0,0,1-1.232-2.366ZM-34.759-91.039c0-21.226-7.624-35.917-14.154-47.35-8.7-14.15-16.866-26.121-16.866-40.27,0-15.78,11.967-30.471,28.832-30.471.762,0,1.484.092,2.223.139a171.05,171.05,0,0,0-115.942-45.078,171.5,171.5,0,0,0-143.455,77.385c4.031.127,7.829.208,11.05.208,17.954,0,45.76-2.183,45.76-2.183,9.251-.542,10.344,13.056,1.1,14.149,0,0-9.3,1.09-19.649,1.632L-193.341,23.1l37.578-112.686-26.748-73.291c-9.25-.542-18.008-1.632-18.008-1.632-9.255-.546-8.17-14.691,1.089-14.149,0,0,28.348,2.183,45.218,2.183,17.955,0,45.765-2.183,45.765-2.183,9.255-.542,10.344,13.056,1.094,14.149,0,0-9.314,1.09-19.649,1.632l62.048,184.56,17.712-56.125c7.869-24.528,12.483-41.906,12.483-56.6m-287.6,8.659a171.718,171.718,0,0,0,96.8,154.536l-81.928-224.407A171.02,171.02,0,0,0-322.36-82.38" fill="#32373c"/>
    </g>
  </g>
</svg>
